Coordinates
version=1
nRows=26
nColumns=24
inDegrees=yes

Units are S.I. units (second, meters, Newtons, ...)
Angles are in degrees.

endheader
time	pelvis_tilt	pelvis_list	pelvis_rotation	pelvis_tx	pelvis_ty	pelvis_tz	hip_flexion_r	hip_adduction_r	hip_rotation_r	knee_angle_r	ankle_angle_r	subtalar_angle_r	mtp_angle_r	hip_flexion_l	hip_adduction_l	hip_rotation_l	knee_angle_l	ankle_angle_l	subtalar_angle_l	mtp_angle_l	lumbar_extension	lumbar_bending	lumbar_rotation
      0.47100000	      1.58870869	      6.55821084	      1.99359530	     -0.78937185	      1.00894443	      0.26596815	     19.48005233	     -6.68948457	     -1.01265100	     -3.26762414	      5.88134464	    -11.10737503	     -0.10272201	    -13.34598874	      8.49122047	      7.44841323	    -11.12979340	     10.13655403	    -16.14068174	     -0.06223240	     -9.95852401	     -8.01387322	     -0.68002790
      0.47516667	      1.66015791	      6.53102529	      1.99530658	     -0.78347918	      1.00854075	      0.26637735	     19.40410400	     -6.60979289	     -0.81387424	     -3.54678248	      5.94109548	    -11.12557169	     -0.13144577	    -13.44346716	      8.43201864	      7.27660227	    -11.80614964	     10.25073445	    -15.85412627	     -0.16517088	     -9.98664491	     -7.94344836	     -0.72097411
      0.47933333	      1.71146749	      6.50367412	      1.96436966	     -0.77752495	      1.00812326	      0.26681087	     19.35946145	     -6.51724868	     -0.55274610	     -3.90147133	      5.98603810	    -11.16612443	     -0.13512714	    -13.52038355	      8.39036543	      7.15653499	    -12.48567479	     10.32616716	    -15.69086586	     -0.20208815	     -9.98751129	     -7.87850820	     -0.70895351
      0.48350000	      1.76860918	      6.45480350	      1.93465976	     -0.77147363	      1.00774943	      0.26727709	     19.27376233	     -6.39742934	     -0.29730815	     -4.24990437	      5.95284576	    -11.22066177	     -0.12571758	    -13.54394176	      8.30285124	      6.83740331	    -13.27745783	     10.40912088	    -15.23931147	     -0.22951110	     -9.96689521	     -7.78649678	     -0.65124801
      0.48766667	      1.81758174	      6.40269331	      1.88268821	     -0.76537791	      1.00738101	      0.26775882	     19.20303874	     -6.26477576	     -0.01138556	     -4.65717019	      5.88090082	    -11.29202793	     -0.09933446	    -13.54624549	      8.22332725	      6.54665252	    -14.09564387	     10.44504521	    -14.88691993	     -0.22030862	     -9.93610483	     -7.68914273	     -0.59418686
      0.49183333	      1.86520828	      6.34332003	      1.82479443	     -0.75923940	      1.00703813	      0.26825696	     19.12807645	     -6.12007612	      0.26983148	     -5.10014694	      5.76396237	    -11.35929010	     -0.05340319	    -13.51138606	      8.13370801	      6.22259848	    -14.98158736	     10.45935662	    -14.48929687	     -0.16887620	     -9.89669875	     -7.58293485	     -0.52025774
      0.49600000	      1.91347566	      6.28152758	      1.75292136	     -0.75306013	      1.00671959	      0.26878016	     19.04375929	     -5.96568365	      0.57128925	     -5.56094458	      5.60967925	    -11.43221579	      0.00802346	    -13.45324442	      8.04050235	      5.86634533	    -15.90835409	     10.42811393	    -14.08561875	     -0.07474192	     -9.84741541	     -7.47704104	     -0.43349315
      0.50016667	      1.95684223	      6.21847198	      1.67469634	     -0.74687716	      1.00640914	      0.26931572	     18.96462424	     -5.80691465	      0.87301930	     -6.05172304	      5.41816124	    -11.49507056	      0.08183979	    -13.34284020	      7.94386767	      5.47524448	    -16.92243510	     10.36901650	    -13.65791787	      0.06023028	     -9.79037048	     -7.36659575	     -0.34269017
      0.50433333	      1.99775076	      6.14453211	      1.61309158	     -0.74066084	      1.00613936	      0.26985832	     18.87720545	     -5.63963294	      1.13038125	     -6.55781519	      5.16102313	    -11.57902467	      0.18800793	    -13.19297141	      7.82322034	      5.07343185	    -17.99808248	     10.27206628	    -13.17464468	      0.28858945	     -9.73154152	     -7.23582944	     -0.23003886
      0.50850000	      2.04152413	      6.07222295	      1.52680033	     -0.73444746	      1.00587789	      0.27043054	     18.78482756	     -5.46683221	      1.42044602	     -7.06958329	      4.87562306	    -11.67782711	      1.85469110	    -13.00008488	      7.70385991	      4.61424050	    -19.14593940	     10.05745209	    -12.80071244	      4.53011894	     -9.66802281	     -7.11448088	     -0.14006661
      0.51266667	      2.08053900	      6.00828637	      1.43676083	     -0.72822505	      1.00564171	      0.27101010	     18.70172214	     -5.30481201	      1.67044225	     -7.60943848	      4.61320687	    -11.65014838	      1.84749367	    -12.76536070	      7.58776852	      4.13307079	    -20.35702068	      9.81230314	    -12.33316359	      4.59647246	     -9.59564622	     -7.00990018	     -0.03742064
      0.51683333	      2.11584975	      5.93055102	      1.35978540	     -0.72202381	      1.00542826	      0.27160151	     18.61764272	     -5.13088117	      1.89900544	     -8.15887747	      4.31173620	    -11.67667537	      1.85031100	    -12.47578442	      7.44510639	      3.64606970	    -21.65752369	      9.55300658	    -11.84614472	      4.72062432	     -9.52240054	     -6.88069164	      0.07931991
      0.52100000	      2.14722675	      5.85393322	      1.29652652	     -0.71584708	      1.00523869	      0.27220292	     18.53429651	     -4.96308457	      2.09568643	     -8.71566636	      4.00764291	    -11.69696592	      1.86195558	    -12.12912927	      7.28958820	      3.14518859	    -23.03799616	      9.21866789	    -11.36468037	      4.91426876	     -9.45040388	     -6.75697993	      0.18856830
      0.52516667	      2.17926054	      5.77060908	      1.22212085	     -0.70968211	      1.00506937	      0.27281295	     18.45289036	     -4.78911094	      2.28000670	     -9.28482978	      3.70801322	    -11.69113472	      1.87795759	    -11.74304798	      7.12036397	      2.61763280	    -24.48151864	      8.80635171	    -10.89657652	      5.14853976	     -9.37400965	     -6.62379769	      0.29742854
      0.52933333	      2.20447891	      5.68528794	      1.17846455	     -0.70358993	      1.00491229	      0.27342503	     18.38858896	     -4.62218410	      2.40638407	     -9.88787094	      3.40835832	    -11.73132157	      1.90196517	    -11.29122507	      6.93151481	      2.11469858	    -26.01772414	      8.38473813	    -10.41582119	      5.53912411	     -9.31124398	     -6.48654995	      0.42117069
      0.53350000	      2.23292944	      5.59432151	      1.11656852	     -0.69750655	      1.00478204	      0.27405581	     18.32016326	     -4.44902217	      2.52687467	    -10.48925468	      3.14137557	    -11.70374801	      1.92612028	    -10.80797229	      6.72829060	      1.57441966	    -27.59603577	      7.83478533	     -9.98024662	      5.99931292	     -9.24449877	     -6.34463698	      0.53209706
      0.53766667	      2.29701142	      5.50379706	      1.05422022	     -0.69145300	      1.00474056	      0.27471968	     18.19896586	     -4.27800212	      2.64549412	    -11.06562157	      2.87068108	    -11.71805122	      2.21244514	    -10.33543416	      6.50815219	      1.02819589	    -29.17678216	      7.03166663	     -9.69684001	     13.96664317	     -9.22029043	     -6.21544535	      0.59669726
      0.54183333	      2.32477669	      5.39569379	      1.00500840	     -0.68545219	      1.00464785	      0.27533235	     18.14088313	     -4.10179948	      2.68220325	    -11.69930530	      2.70308145	    -11.59991959	      2.20561899	     -9.76852592	      6.27138394	      0.51707815	    -30.87207081	      6.35191576	     -9.39734509	     14.02511559	     -9.15941037	     -6.04502230	      0.72150871
      0.54600000	      2.36916704	      5.28958119	      0.95838923	     -0.67951496	      1.00460255	      0.27597630	     18.06163635	     -3.92973872	      2.71500897	    -12.32627136	      2.55051429	    -11.52429689	      2.19384016	     -9.18543500	      6.01988860	      0.00284828	    -32.59841736	      5.59863331	     -9.09587803	     14.12564890	     -9.11978808	     -5.88556659	      0.82402912
      0.55016667	      2.40334740	      5.17534498	      0.91825135	     -0.67362853	      1.00456460	      0.27661826	     17.99264351	     -3.75306148	      2.73158944	    -12.95537341	      2.43564199	    -11.44652785	      2.17456993	     -8.55659927	      5.75373932	     -0.48649022	    -34.36654289	      4.78478358	     -8.84617865	     14.27139249	     -9.09028905	     -5.72235680	      0.92718223
      0.55433333	      2.44981808	      5.05421222	      0.88536567	     -0.66779306	      1.00456400	      0.27726373	     17.90476077	     -3.57548352	      2.71698501	    -13.57441032	      2.36752656	    -11.35408610	      2.14942985	     -7.91080089	      5.46779260	     -0.96530825	    -36.16246985	      3.92184254	     -8.66141801	     14.43446760	     -9.06366604	     -5.55377838	      1.02281644
      0.55850000	      2.49166811	      4.92352335	      0.85679558	     -0.66202470	      1.00457544	      0.27791807	     17.82365349	     -3.38990913	      2.68879224	    -14.19894778	      2.34423460	    -11.25717591	      2.11251155	     -7.23200009	      5.16680263	     -1.41556331	    -37.98202187	      3.01791144	     -8.52433744	     14.63181736	     -9.05126899	     -5.37283936	      1.11886397
      0.56266667	      2.59192422	      4.78461614	      0.82756042	     -0.65631028	      1.00470792	      0.27855352	     17.65315229	     -3.19914364	      2.67010063	    -14.76962617	      2.38867672	    -11.16563920	      2.09277363	     -6.60504236	      4.85905189	     -1.82804169	    -39.78225734	      2.02609386	     -8.51748785	     14.72244334	     -9.11514616	     -5.16285612	      1.18779800
      0.56683333	      2.60070531	      4.64806586	      0.81077651	     -0.65064919	      1.00470523	      0.27921049	     17.60542859	     -3.01661562	      2.58680549	    -15.38819178	      2.43448628	    -11.03491445	      2.04457326	     -5.84293711	      4.53936863	     -2.24267947	    -41.63418459	      1.14820516	     -8.47990803	     14.88905079	     -9.06637090	     -4.99749910	      1.29590369
      0.57100000	      2.60694862	      4.44529141	      1.04045572	     -0.64482363	      1.00481895	      0.28021297	     17.40308977	     -2.77255986	      2.38991552	    -15.80014156	      2.47628326	    -11.13897458	      1.98654231	     -5.03550431	      4.03439551	     -2.47525303	    -43.53832433	      0.25575133	     -8.34781157	     15.02292452	     -9.02524111	     -4.79013561	      1.17868668
      0.57516667	      2.71739278	      4.30174373	      1.01307687	     -0.63939427	      1.00502334	      0.28084327	     17.20692555	     -2.57869824	      2.36573038	    -16.32060942	      2.63676281	    -11.07579253	      1.95655182	     -4.35996460	      3.72135770	     -2.81518458	    -45.33770906	     -0.67025339	     -8.49417742	     15.07101511	     -9.13616290	     -4.58549096	      1.22264464
